<svg 
          width="95.00933837890625" 
          height="141.99143981933594" fill="none" 
          xmlns="http://www.w3.org/2000/svg">
          <path d="M 49.235137939453125 0.0023312559351325035 C 43.916637897491455 0.0038770099636167288 38.81643724441528 2.114121675491333 35.05563735961914 5.869171619415283 C 31.29493737220764 9.624211549758911 29.181539269979112 14.716741561889648 29.17993927001953 20.027141571044922 L 29.17993927001953 29.124040603637695 L 20.069238662719727 29.124040603637695 C 17.43363857269287 29.121840603649616 14.82343864440918 29.638640999794006 12.388038635253906 30.64474105834961 C 9.952658653259277 31.650841116905212 7.739868402481079 33.126641154289246 5.876258373260498 34.98754119873047 C 4.012648344039917 36.84834122657776 2.5348182916641235 39.05794310569763 1.5273083448410034 41.48964309692383 C 0.5198032855987549 43.92144298553467 0.0024010296911001205 46.52774000167847 0.00470522977411747 49.159339904785156 L 0.00470522977411747 69.17713928222656 L 29.17523765563965 69.17713928222656 L 29.17523765563965 87.37094116210938 L 20.064538955688477 87.37094116210938 C 14.7445387840271 87.37024116213433 9.642098426818848 89.4795413017273 5.879398345947266 93.2347412109375 C 2.1166982650756836 96.99004125595093 0.0018583800410851836 102.08343935012817 0 107.39543914794922 L 0 141.99143981933594 L 20.073938369750977 141.99143981933594 C 22.707038402557373 141.99043981928844 25.31403875350952 141.4714399576187 27.746238708496094 140.46343994140625 C 30.178338766098022 139.45643997192383 32.387837290763855 137.98043763637543 34.24873733520508 136.1204376220703 C 36.10953736305237 134.2604376077652 37.58513915538788 132.0524365901947 38.591339111328125 129.6224365234375 C 39.59743916988373 127.1924364566803 40.11443956301082 124.58944153785706 40.11273956298828 121.96044158935547 L 40.1384391784668 121.96044158935547 L 40.1384391784668 108.74343872070312 L 40.084739685058594 108.75044250488281 L 40.084739685058594 24.54644203186035 L 40.1291389465332 24.556941986083984 L 40.1291389465332 20.030641555786133 C 40.133738946635276 17.617141485214233 41.09433901309967 15.303441524505615 42.801239013671875 13.594541549682617 C 44.50803899765015 11.88564157485962 46.8226375579834 10.920341676101089 49.239837646484375 10.909241676330566 L 84.08123779296875 10.909241676330566 L 84.08123779296875 20.030641555786133 C 84.07383779296651 22.443041563034058 83.1099363565445 24.75434160232544 81.40043640136719 26.459041595458984 C 79.69093644618988 28.16374158859253 77.37493944168091 29.123240588232875 74.9588394165039 29.127540588378906 L 44.25233840942383 29.127540588378906 L 44.25233840942383 40.046142578125 L 74.95413970947266 40.046142578125 C 80.27263975143433 40.04644257813925 85.37343764305115 37.93724083900452 89.13443756103516 34.18254089355469 C 92.89553761482239 30.42784094810486 95.00873837887775 25.335241317749023 95.00933837890625 20.02484130859375 L 95.00933837890625 0 L 49.235137939453125 0.0023312559351325035 Z M 29.17993927001953 58.25734329223633 L 10.9515380859375 58.25734329223633 L 10.9515380859375 49.16044235229492 C 10.95553808612749 46.744142293930054 11.917238354682922 44.427640199661255 13.626638412475586 42.717140197753906 C 15.335938453674316 41.00674021244049 17.65393829345703 40.0413426393643 20.073938369750977 40.032142639160156 L 29.18463897705078 40.032142639160156 L 29.17993927001953 58.25734329223633 Z M 29.17993927001953 121.97044372558594 C 29.17593926982954 124.38244366645813 28.215038895606995 126.69544351100922 26.507638931274414 128.4014434814453 C 24.8001389503479 130.10844349861145 22.485138654708862 131.07044653315097 20.069238662719727 131.07644653320312 L 10.94683837890625 131.07644653320312 L 10.94683837890625 107.40144348144531 C 10.949038378894329 104.98744344711304 11.911238551139832 102.67343771457672 13.621838569641113 100.96743774414062 C 15.332538604736328 99.26143777370453 17.651538610458374 98.30374172364827 20.069238662719727 98.30464172363281 L 29.17993927001953 98.30464172363281 L 29.17993927001953 121.97044372558594 Z M 44.25233840942383 69.17594146728516 L 67.26264190673828 69.17594146728516 L 67.26264190673828 78.28214263916016 C 67.25374190695584 80.69414258003235 66.28933918476105 83.00453865528107 64.58013916015625 84.70893859863281 C 62.871039152145386 86.41333854198456 60.5558397769928 87.37324357917532 58.14023971557617 87.37904357910156 L 44.25233840942383 87.37904357910156 L 44.25233840942383 98.30464172363281 L 58.14493942260742 98.30464172363281 C 60.77903938293457 98.3060417235829 63.387534856796265 97.78904211521149 65.82133483886719 96.78314208984375 C 68.25513482093811 95.77734208106995 70.46663975715637 94.30234217643738 72.32913970947266 92.44264221191406 C 74.19173967838287 90.58284223079681 75.66893815994263 88.3747410774231 76.67633819580078 85.94464111328125 C 77.68373823165894 83.5145411491394 78.20154190668836 80.90993857383728 78.20014190673828 78.27983856201172 L 78.20944213867188 78.27983856201172 L 78.20944213867188 58.255043029785156 L 44.25233840942383 58.255043029785156 L 44.25233840942383 69.17594146728516 Z" fill="rgb(255,255,255)"/>
        </svg>